<?xml version="1.0" encoding="UTF-8"?>
<svg id="Layer_1" data-name="Layer 1" xmlns="http://www.w3.org/2000/svg" viewBox="0 0 220.13 223.16">
  <defs>
    <style>
      .cls-1 {
        fill: #fe7231;
      }

      .cls-2 {
        fill: #1f2d5f;
      }

      .cls-3 {
        fill: #f2f1ef;
      }

      .cls-4 {
        fill: #fefefe;
      }
    </style>
  </defs>
  <path class="cls-3" d="M122.21,17.61C109.86.36,93.65-.05,72.91,0c-16.08.04-25.3,1.72-39.13,10.17C15.69,21.24,4.19,41.08,3.11,46.57c-7.04,35.72-.56,65.3,4.06,73.96,7.07,13.25,19.88,27.18,37.57,33.26,19.08,6.57,34.4-.29,38.35,7.83,1.34,2.76,3.35,11.1,4.7,16.04,4.7,17.22,9.42,21.68,21.95,33.03,6.97,6.32,15.56,9.94,34.4,11.58,22.7,1.98,40.7,1.34,64.57-9,5.01-2.17,9.39-21.02,9.78-26.61,1.96-27.78,3.31-31.7-2.74-52.43-3.24-11.13-7.18-9.06-7.04-15.26.18-8.1,1.52-8.83,5.48-21.52,1.92-6.14,3.64-11.54.39-14.87-16.04-16.43-42-16-43.43-16.04-26.79-.89-32.39,7.8-49.7,8.61-8.34.39-14.48-5.87-13.7-12.13,1.73-13.85,15.82-17.97,16.83-30.13.81-9.79,0-11.98-2.35-15.26Z"/>
  <g>
    <path class="cls-4" d="M98.25,142.2c-.98,59.8,37.89,77.16,91.96,64.67,4.47-1.03,9.56-2.16,13.45-4.49v-65.04l-1.12-1.12h-48.59l-1.12,1.12v20.93l1.12,1.12h22.8v26.91c-25.83,5.24-45.45-.95-49.88-28.98-6.31-39.89,16.97-64.89,57.35-53.62,2.46.69,8.9,4.16,10.5,3.03,1.6-5.74,6.5-12.91,7.87-18.35.21-.84.63-1.43,0-2.29-.8-1.12-13.39-4.79-15.65-5.3-33.04-7.41-72.94,1.42-84.95,36.73-21.92,6.8-47.65,9.52-55.7-17.19-5.78-19.16-4.1-55.23,18.12-63.38,14.15-5.19,26.97,1.15,40.08,5.74l8.59-19.88c.26-2.7-11.44-6.05-13.92-6.75-32.37-9.14-66.19-.36-78.46,33.24-7.43,20.32-6.72,51.2,4.17,70.21,15.45,26.97,45.85,27.51,73.39,22.67Z"/>
    <path class="cls-1" d="M101.99,117.53c12.01-35.31,51.91-44.14,84.95-36.73,2.26.51,14.85,4.18,15.65,5.3.62.87.2,1.46,0,2.29-1.36,5.44-6.26,12.61-7.87,18.35-1.61,1.12-8.05-2.35-10.5-3.03-40.39-11.27-63.66,13.73-57.35,53.62,4.43,28.03,24.05,34.22,49.88,28.98v-26.91h-22.8l-1.12-1.12v-20.93l1.12-1.12h48.59l1.12,1.12v65.04c-3.89,2.33-8.98,3.46-13.45,4.49-54.07,12.49-92.94-4.87-91.96-64.67.13-8.13,1.12-16.97,3.74-24.67Z"/>
    <path class="cls-2" d="M101.99,117.53c-2.62,7.7-3.6,16.54-3.74,24.67-27.54,4.84-57.94,4.29-73.39-22.67-10.89-19-11.6-49.88-4.17-70.21C32.97,15.72,66.79,6.94,99.16,16.08c2.48.7,14.18,4.05,13.92,6.75l-8.59,19.88c-13.11-4.59-25.94-10.92-40.08-5.74-22.22,8.15-23.89,44.22-18.12,63.38,8.05,26.7,33.78,23.98,55.7,17.19Z"/>
  </g>
</svg>