<?xml version="1.0" encoding="UTF-8"?>
<svg id="Layer_1" data-name="Layer 1" xmlns="http://www.w3.org/2000/svg" viewBox="0 0 329.45 178.34">
  <defs>
    <style>
      .cls-1 {
        fill: #223061;
      }

      .cls-2 {
        fill: #f2f1ef;
      }

      .cls-3 {
        fill: #212e60;
      }

      .cls-4 {
        fill: #202e5f;
      }

      .cls-5 {
        fill: #fe7333;
      }
    </style>
  </defs>
  <path class="cls-2" d="M55.64.98c-18.34.28-22.6-.18-30.52,3C7.84,10.9-3.26,36.46.86,58.37c2.24,11.89,10.36,30.18,24.26,33.77,6.33,1.64,11.68-.33,13.3,2.61,2.44,4.4-2.63,3.55-7.04,16.04-4.59,13.01-3.76,26.35,3.13,41.02,6.58,14,22.98,26.38,37.96,24.72,12.75-1.41,23.23-10.38,30.52-5.09,2.79,2.02,1.81,3.74,4.7,5.3,6.69,3.62,13.86-4.55,24.65-1.78,2.95.76,2.15,1.3,5.48,2.35,12.12,3.8,17.76-4.96,32.09-3.52,6.33.64,6.06,2.43,12.91,2.74,7.95.36,9.72-1.99,18-2.35,8.82-.38,8.71,2.2,18.78,2.35,9.98.15,10.32-2.38,19.17-1.96,10.67.52,11.15,4.25,19.22,3.7,9.29-.63,10.22-5.68,19.91-6.84,9.04-1.08,10.16,3.09,19.57,3.13,9.21.04,22.55-3.91,28.57-14.48,5.76-10.13,2.52-22.32,2.35-22.93-1.6-5.69-4.16-7.81-4.3-13.28-.19-7.35,5.37-8.87,5.24-14.27-.19-7.57-12.55-11.9-22.84-13.7-11.86-2.06-15.03,1.64-26.61-1.17-3.44-.84-11.29-2.49-13.85-8.22-2.61-5.84,2.98-9.72,5.63-23.09,1.11-5.58,2.77-14.56-.78-24.28-1.31-3.56-4.58-12.51-12.87-16.81-9.11-4.73-15.64.62-29-3.91-5.33-1.81-6.22-5.07-11.35-5.87-5.4-.84-7.38,1.43-14.87,3.13-11.84,2.69-13.24-1.55-24.65,1.17-7.91,1.89-9.18,4.39-15.26,4.3-6.66-.09-7.61-3.2-14.02-4.7-12.54-2.94-18.24,6.47-32.76,5.48-2.15-.15-9.05-.72-15.83-5.09-6.36-4.09-5.57-10.23-10.17-13.7-7.05-5.29-18.75-2.45-34.43-2.21Z"/>
  <g>
    <path class="cls-5" d="M152.14,109.51l10,.1c2.45.83,1.06,6.76,3.09,5.89,6.11-7.68,16.67-9.4,25.37-5.15,2.93,1.43,4,3.78,6.73,5.1,6.18-7.9,19.9-9.96,27.78-3.67,5.96,4.75,5.45,11.81,6.01,18.74,1.89-5.06,2.82-10.33,6.38-14.61,9.21-11.09,32.61-10.63,38.91,3.35,3.16-3.55,3.49-6.43,8.23-8.62,9.71-4.5,21.02-2.32,30.66,1.17l-4.13,10.43c-4.5-1.86-14.12-5.58-18.55-2.86-1.83,1.13-1.79,3.9-.48,5.5,1.92,2.34,13.7,5.96,17.6,8.61,5.84,3.98,7.11,8.33,6.35,15.4-1.38,12.74-17.34,13.95-27.35,13.15-4.14-.33-9.88-3.09-12.71-3.06-2.53.03-8.23,2.69-11.97,3.02-10.85.96-22.71-.99-28.66-11.01-1.83-3.08-2.31-6.72-4.64-9.22v19.5h-14.22v-35.62c0-3.68-5.6-6.72-9.16-6.23-4.32.59-8.81,5.82-8.81,9.98v31.88h-14.22v-34.88c0-1.02-2.26-4.85-3.35-5.64-3.7-2.67-9.42-1.22-12.02,2.23-.76,1-2.59,5.51-2.59,6.41v31.88h-14.22v-51.75ZM265.91,129.76c1.79-15.67-21.25-15.66-19.46,0h19.46ZM245.7,138.76c.51,11.72,8.84,13.82,19.01,12.67,3.73-.42,9.84-3.6,12.7-3.43,2.42.14,7.12,2.58,10.17,3.18,3.81.74,16.89,2.17,14.9-5.13-1.32-4.84-19.46-8.89-22.72-14.04l-.37,6.75h-33.68Z"/>
    <path class="cls-5" d="M134.18,129.01c.93-15.46-13.38-9.78-22.7-7.58-1.48-1.4-4.92-7.35-3.92-8.94,1.67-2.65,16.81-4.63,20.29-4.52,14.12.43,19.59,7.19,20.54,20.67.57,8.05.62,20.5.04,28.53-.1,1.39-.24,2.74-.89,3.99h-9.54c-.35-1.33-1.56-7.06-3.44-6.64-9.09,12.34-32.41,9.96-32.95-7.51l-1.22,10.78c-.63,1.93-14.88,4.09-17.46,4.26-21.36,1.38-35.98-7.07-37.82-29.67-2.86-35.19,25.51-47.25,55.38-36.35l-4.49,10.91c-1.11.7-8.23-2.4-10.87-2.66-19.63-1.97-27.09,11.5-24.99,29.54,1.71,14.69,13.82,18.54,26.87,15.46v-14.25h-12.72v-12h26.2v16.88l1.49,4.87c-.55-6.73,4.05-11.44,10.09-13.52,1.94-.67,8.04-2.22,9.76-2.22h12.35ZM134.18,137.26c-5.41-.16-16.79-.84-17.93,6.43-.81,5.16,1.22,8.05,6.43,8.31,8.86.44,12.66-6.66,11.5-14.73Z"/>
    <path class="cls-3" d="M113.22,82.51c-4.06.38-8.6-.28-12.72,0v-34.12c0-.55-2.36-5.4-3.02-5.97-3.25-2.83-9.69-2.04-12.73.69-1.27,1.13-3.71,6.08-3.71,7.54v30.75l-1.12,1.12h-13.1V20.26l-4.98,8.94c-14.76-7.14-29.85-4.6-31.69,13.94-1.71,17.21,2.43,29.96,21.98,28.03,2.27-.22,10.7-3.01,11.27-2.87,1.7.41,1.98,10.44-.01,11.9-5.2,3.81-22.48,3.64-28.6,1.79-26.17-7.91-26.23-55.68-1.63-65.84,11.95-4.93,21.87-2.07,33.66,1.11v-7.5h13.1c1.07.66,1.03,1.5,1.16,2.59.92,7.89-1.28,16.48-.78,24.41,12.49-13.9,35.73-7.74,34.42,12.75-1.25,3.86-1.22,10.46,0,14.25v18l-1.5.75Z"/>
    <path class="cls-1" d="M114.72,49.51c2.97-9.15,6.83-16.22,16.63-18.96,18.65-5.21,33.06,6.4,31.28,25.71,2.65-.98,4.17-2.79,7.07-3.78,1.83-.62,8.91-2.21,10.52-2.21h11.6c.13-2.92.12-6.59-2.19-8.68-6-5.44-18.45,2.46-21.02.84-1.51-3.69-6.17-7.38-1.49-9.79,8.58-4.42,27.28-5.18,34.43,2.26,1.47,1.53,4.5,7.87,4.5,9.74v37.88l-9.74-.36-3.35-6.37c-8.49,10.45-27.97,11.17-32.93-3.02-1.12,4.44,1.45,6.32-3.6,8.4-7.52,3.09-20.98,3.06-28.38-.34-6.93-3.18-11.03-10.02-13.3-17.05-1.22-3.79-1.25-10.39,0-14.25ZM149.15,51.01c1.65-15.79-21.11-15.79-19.46,0h19.46ZM191.82,58.51c-6.1-.36-17.7-.64-18.02,7.9-.39,10.08,15.06,8.19,17.53.24.83-2.67.44-5.42.5-8.13ZM160.37,60.01h-31.44c.45,16.6,18.97,14.28,29.95,9.38l1.49-9.38Z"/>
    <path class="cls-4" d="M223.25,77.26v27.75h-13.47V30.76h11.23l1.88,6.01c3.63-2.36,5.49-5.23,9.94-6.55,30.27-8.98,33.39,49.28,8.58,52.84-7.61,1.09-12.45-1.15-18.14-5.8ZM226.49,43.02c-6.4,6.41-5.05,34.78,11.4,28.3,7.45-2.93,7.22-23.85,2.21-28.57-3.38-3.18-10.38-2.96-13.61.27Z"/>
    <path class="cls-1" d="M114.72,81.76c-.09.95-.83.69-1.5.75l1.5-.75Z"/>
  </g>
</svg>